:FULLY-SPECIFIED
:FORCE-ALL-JOINTS-BE-3DOF
:DEGREES
306
root 9.09307 15.4133 -23.7897 12.8244 60.0017 16.9266
lfemur -15.9157 18.7851 -17.8592
ltibia 52.5705 -0 0
lfoot -16.2143 -27.3334 -0.0259936
ltoes 59.1457 -0 0
rfemur -52.3019 -19.1707 35.5616
rtibia 56.3702 -0 0
rfoot 17.9918 12.354 -0.0569603
rtoes 15.9215 -0 0
lowerback 9.44267 -3.24026 -8.64638
upperback 5.11163 -4.82976 -4.0788
thorax 0.450502 -2.45188 0.994641
lowerneck -5.38936 -10.5997 -2.39736
upperneck -2.12482 -14.0643 10.4727
head 1.25356 -6.91144 3.30148
lclavicle 1.17283e-14 2.8625e-14 0
lhumerus -41.9273 -41.6605 98.7264
lradius 59.5949 -0 0
lwrist 22.2539 0 0
lhand 13.3847 11.642 -0.00220427
lfingers 7.12502 -0 0
lthumb 38.3295 37.3542 -0.000870049
rclavicle 1.17283e-14 2.8625e-14 0
rhumerus -45.273 68.6812 -80.6036
rradius 81.2866 -0 0
rwrist 5.59062 0 0
rhand -2.18328 -8.57155 0.344825
rfingers 7.12502 -0 0
rthumb 23.4953 -37.0342 0.329536
307
root 9.06517 15.4257 -23.7551 12.4092 58.9498 16.2521
lfemur -15.8194 19.0706 -17.641
ltibia 52.1362 -0 0
lfoot -16.5725 -26.981 -0.0819028
ltoes 59.7639 -0 0
rfemur -52.8082 -19.2783 34.9539
rtibia 56.5671 -0 0
rfoot 17.709 12.5681 -0.0838521
rtoes 14.7358 -0 0
lowerback 9.53223 -3.05327 -8.53224
upperback 5.10569 -4.58648 -4.04581
thorax 0.377796 -2.32804 0.952891
lowerneck -5.36749 -10.6395 -2.0745
upperneck -2.49693 -14.1011 10.4616
head 1.10434 -6.94514 3.26351
lclavicle 1.17283e-14 2.8625e-14 0
lhumerus -42.2233 -42.4426 99.1533
lradius 59.5862 -0 0
lwrist 22.1972 0 0
lhand 13.4098 11.5774 -0.00374638
lfingers 7.12502 -0 0
lthumb 38.3535 37.2858 -0.00137449
rclavicle 1.17283e-14 2.8625e-14 0
rhumerus -37.682 66.7546 -73.9255
rradius 81.1643 -0 0
rwrist 3.58947 0 0
rhand -4.01408 -9.75725 0.770729
rfingers 7.12502 -0 0
rthumb 21.7356 -38.2586 0.738177
308
root 9.03608 15.4403 -23.7223 12.0426 57.9258 15.6235
lfemur -15.6975 19.2973 -17.4223
ltibia 51.6311 -0 0
lfoot -17.0017 -26.678 -0.160569
ltoes 60.5997 -0 0
rfemur -53.2864 -19.2552 34.0764
rtibia 56.7732 -0 0
rfoot 17.2567 12.524 -0.0840411
rtoes 13.6063 -0 0
lowerback 9.6331 -2.85209 -8.37749
upperback 5.09845 -4.32258 -4.01014
thorax 0.293039 -2.1933 0.88962
lowerneck -5.30827 -10.7125 -1.72534
upperneck -2.89247 -14.1803 10.4219
head 0.939584 -7.0031 3.21409
lclavicle 1.17283e-14 2.8625e-14 0
lhumerus -42.5966 -43.4006 99.7249
lradius 59.5851 -0 0
lwrist 22.0653 0 0
lhand 13.4964 11.5177 -0.00460889
lfingers 7.12502 -0 0
lthumb 38.4354 37.2054 -0.00147302
rclavicle 1.17283e-14 2.8625e-14 0
rhumerus -31.022 63.6696 -68.3506
rradius 80.9082 -0 0
rwrist 1.25806 0 0
rhand -6.5889 -11.2175 1.22298
rfingers 7.12502 -0 0
rthumb 19.2603 -39.7899 1.17117
309
root 9.00602 15.4568 -23.6904 11.7187 56.9262 15.0351
lfemur -15.5531 19.4713 -17.2035
ltibia 51.0659 -0 0
lfoot -17.4827 -26.4029 -0.25495
ltoes 61.5849 -0 0
rfemur -53.7362 -19.1215 32.9645
rtibia 56.9852 -0 0
rfoot 16.6588 12.2471 -0.0629436
rtoes 12.5345 -0 0
lowerback 9.73987 -2.64063 -8.18712
upperback 5.08919 -4.0429 -3.97136
thorax 0.199226 -2.05025 0.808289
lowerneck -5.21767 -10.8132 -1.35646
upperneck -3.30459 -14.2953 10.3572
head 0.762815 -7.08125 3.15499
lclavicle 1.17283e-14 2.8625e-14 0
lhumerus -43.0481 -44.4975 100.432
lradius 59.5902 -0 0
lwrist 21.869 0 0
lhand 13.6333 11.4632 -0.00481472
lfingers 7.12502 -0 0
lthumb 38.5648 37.1164 -0.00112199
rclavicle 1.17283e-14 2.8625e-14 0
rhumerus -25.6451 59.6302 -64.2119
rradius 80.5407 -0 0
rwrist -1.33563 0 0
rhand -9.77627 -12.9101 1.64588
rfingers 7.12502 -0 0
rthumb 16.1953 -41.5779 1.5724
310
root 8.97521 15.475 -23.6586 11.433 55.9473 14.4822
lfemur -15.3897 19.5986 -16.9852
ltibia 50.4508 -0 0
lfoot -17.9965 -26.1344 -0.357937
ltoes 62.6515 -0 0
rfemur -54.1584 -18.8959 31.6543
rtibia 57.1997 -0 0
rfoot 15.939 11.7627 -0.0271641
rtoes 11.5216 -0 0
lowerback 9.84711 -2.42279 -7.9662
upperback 5.0772 -3.75226 -3.92903
thorax 0.0993649 -1.90144 0.712379
lowerneck -5.10163 -10.9363 -0.974419
upperneck -3.72644 -14.439 10.2713
head 0.577567 -7.17551 3.08798
lclavicle 1.17283e-14 2.8625e-14 0
lhumerus -43.579 -45.6962 101.264
lradius 59.6 -0 0
lwrist 21.6193 0 0
lhand 13.8095 11.4141 -0.00442382
lfingers 7.12502 -0 0
lthumb 38.7312 37.022 -0.000298743
rclavicle 1.17283e-14 2.8625e-14 0
rhumerus -21.4485 54.8552 -61.3899
rradius 80.0841 -0 0
rwrist -4.12358 0 0
rhand -13.4418 -14.787 1.98855
rfingers 7.12502 -0 0
rthumb 12.6697 -43.5663 1.89072
